<svg width="101" height="34" viewBox="0 0 101 34" fill="none" xmlns="http://www.w3.org/2000/svg">
<path d="M47.9348 21.2245V14.8455H46.0463C45.9716 14.8455 45.8999 14.8362 45.8313 14.8081C45.7628 14.7801 45.7005 14.7395 45.6475 14.6897C45.5945 14.6367 45.554 14.5744 45.5291 14.5058C45.501 14.4373 45.4886 14.3656 45.4917 14.2908V13.4619C45.4917 13.3871 45.501 13.3154 45.5291 13.2468C45.5571 13.1783 45.5976 13.116 45.6506 13.063C45.7036 13.01 45.7628 12.9695 45.8313 12.9414C45.8999 12.9134 45.9716 12.9009 46.0463 12.9041H47.9348V8.87157C47.9348 8.79678 47.9442 8.72511 47.9722 8.65655C48.0003 8.58799 48.0408 8.52567 48.0938 8.47269C48.1467 8.42283 48.2091 8.38231 48.2776 8.35427C48.3462 8.32622 48.421 8.31376 48.4926 8.31687H49.6301C49.7049 8.31687 49.7766 8.32622 49.8451 8.35427C49.9137 8.38231 49.976 8.41971 50.029 8.47269C50.082 8.52567 50.1225 8.58799 50.1505 8.65655C50.1786 8.72511 50.191 8.7999 50.1879 8.87157V12.9041H53.1889C53.2637 12.9041 53.3353 12.9134 53.4039 12.9414C53.4725 12.9695 53.5348 13.01 53.5847 13.063C53.6377 13.116 53.6782 13.1783 53.7062 13.2468C53.7343 13.3154 53.7467 13.3902 53.7436 13.4619V14.2846C53.7467 14.3594 53.7343 14.431 53.7093 14.5027C53.6813 14.5713 53.6408 14.6336 53.5909 14.6866C53.5379 14.7395 53.4756 14.7801 53.407 14.8081C53.3385 14.8362 53.2637 14.8486 53.1889 14.8455H50.1754V21.05C50.1349 21.6858 50.2752 22.3184 50.5837 22.8731C50.7364 23.085 50.9421 23.2532 51.1789 23.3623C51.4157 23.4714 51.6775 23.515 51.9393 23.4932H53.4164C53.4912 23.4932 53.5629 23.5026 53.6314 23.5306C53.7 23.5586 53.7623 23.5992 53.8122 23.6521C53.8651 23.7051 53.9057 23.7674 53.9337 23.836C53.9617 23.9046 53.9742 23.9793 53.9711 24.051V24.9205C53.9711 24.9953 53.9617 25.0669 53.9337 25.1386C53.9057 25.2072 53.8651 25.2695 53.8122 25.3225C53.7592 25.3754 53.7 25.416 53.6314 25.444C53.5629 25.472 53.4912 25.4845 53.4164 25.4814H51.7461C49.2032 25.4845 47.9317 24.0666 47.9317 21.2277L47.9348 21.2245Z" fill="#9A4178"/>
<path d="M56.4922 25.3287C56.4392 25.2757 56.3987 25.2134 56.3738 25.1448C56.3458 25.0763 56.3333 25.0015 56.3364 24.9298V8.87158C56.3364 8.79679 56.3458 8.72511 56.3738 8.65655C56.4018 8.58799 56.4424 8.52567 56.4922 8.47269C56.5452 8.42283 56.6075 8.38232 56.6761 8.35427C56.7446 8.32623 56.8194 8.31376 56.8911 8.31688H58.1002C58.175 8.31376 58.2467 8.32623 58.3184 8.35116C58.3869 8.3792 58.4493 8.41971 58.5022 8.46957C58.5552 8.52255 58.5957 8.58488 58.6206 8.65344C58.6487 8.722 58.6581 8.79679 58.6549 8.87158V14.5058C59.0943 13.9355 59.6584 13.4681 60.3003 13.1378C61.0389 12.8043 61.8429 12.6485 62.65 12.6797C64.1988 12.6797 65.4048 13.1752 66.268 14.1693C67.1312 15.1602 67.5582 16.4753 67.5519 18.1114V24.9361C67.5519 25.0108 67.5426 25.0825 67.5145 25.1542C67.4865 25.2227 67.446 25.2851 67.393 25.3381C67.34 25.391 67.2808 25.4315 67.2123 25.4596C67.1437 25.4876 67.072 25.5001 66.9972 25.497H65.7881C65.7133 25.497 65.6417 25.4876 65.5731 25.4596C65.5045 25.4315 65.4422 25.391 65.3892 25.3381C65.3363 25.2851 65.2958 25.2227 65.2708 25.1542C65.2428 25.0856 65.2303 25.0108 65.2334 24.9361V18.2329C65.2334 17.0892 64.9529 16.2011 64.3951 15.5716C63.8404 14.9515 63.0364 14.6398 61.9862 14.6398C61.5375 14.618 61.0888 14.6928 60.6681 14.858C60.2505 15.0231 59.8703 15.2724 59.5555 15.5965C58.951 16.2354 58.6456 17.1173 58.6456 18.2454V24.9329C58.6456 25.0077 58.6362 25.0794 58.6082 25.148C58.5801 25.2165 58.5427 25.2788 58.4898 25.3318C58.4368 25.3848 58.3745 25.4253 58.3059 25.4534C58.2374 25.4814 58.1626 25.4939 58.0909 25.4908H56.8818C56.8101 25.4908 56.7384 25.4783 56.6699 25.4502C56.6013 25.4222 56.5421 25.3817 56.4891 25.3318L56.4922 25.3287Z" fill="#9A4178"/>
<path d="M72.1012 24.1935C71.1133 23.1589 70.568 21.7597 70.4683 19.9928L70.4434 19.1701L70.4683 18.3723C70.5805 16.6303 71.1321 15.2436 72.1262 14.2121C73.1203 13.1837 74.4291 12.6664 76.0589 12.6602C77.8539 12.6602 79.2407 13.2273 80.2254 14.3648C81.207 15.5022 81.6994 17.0385 81.7025 18.9738V19.382C81.7025 19.4568 81.6932 19.5285 81.6651 19.6001C81.6371 19.6687 81.5966 19.731 81.5436 19.784C81.4906 19.837 81.4283 19.8775 81.3597 19.9055C81.2912 19.9336 81.2164 19.946 81.1416 19.9429H72.7619V20.1611C72.7806 21.1333 73.1171 22.0714 73.7186 22.8348C73.9928 23.1901 74.3481 23.4737 74.7532 23.6638C75.1583 23.8539 75.6039 23.9474 76.0527 23.9349C76.6915 23.9629 77.3272 23.8071 77.8819 23.4861C78.2902 23.2493 78.6486 22.9346 78.9352 22.5544C79.0225 22.4204 79.1347 22.302 79.2656 22.2053C79.3933 22.1555 79.5273 22.1368 79.6645 22.1461H80.8518C80.9827 22.143 81.1104 22.1867 81.2164 22.2677C81.2631 22.3082 81.3036 22.3612 81.3286 22.4204C81.3535 22.4796 81.3628 22.5419 81.3597 22.6074C81.3597 22.9595 81.1385 23.3864 80.696 23.8881C80.1724 24.446 79.5367 24.8854 78.8324 25.1814C77.9661 25.5585 77.0312 25.7455 76.087 25.7268C74.4291 25.7268 73.1047 25.2157 72.1074 24.1904L72.1012 24.1935ZM79.3996 18.2788V18.204C79.4401 17.2162 79.116 16.2501 78.4896 15.4835C78.1904 15.1376 77.8134 14.8634 77.3927 14.6795C76.972 14.4988 76.5139 14.4115 76.0558 14.4333C75.6008 14.4115 75.1458 14.4956 74.7283 14.6795C74.3107 14.8603 73.9398 15.1376 73.6469 15.4835C73.0361 16.2564 72.7245 17.2193 72.765 18.204V18.2788H79.3965H79.3996Z" fill="#9A4178"/>
<path d="M84.5696 10.4026C84.5166 10.3496 84.4761 10.2904 84.448 10.2219C84.42 10.1533 84.4075 10.0816 84.4106 10.0068V8.698C84.4106 8.5453 84.4636 8.39884 84.5696 8.28977C84.6194 8.23367 84.6818 8.19005 84.7503 8.162C84.8189 8.13395 84.8937 8.11837 84.9685 8.12149H86.4892C86.564 8.12149 86.6419 8.13395 86.7104 8.16511C86.7821 8.19316 86.8445 8.23679 86.8975 8.29288C86.9535 8.34586 86.9971 8.40819 87.0252 8.47986C87.0532 8.55154 87.0688 8.62633 87.0688 8.70112V10.01C87.0688 10.0848 87.0564 10.1595 87.0283 10.2281C86.9972 10.2967 86.9535 10.359 86.8975 10.4088C86.7884 10.5148 86.6388 10.5709 86.4892 10.5678H84.9685C84.8937 10.5678 84.822 10.5584 84.7534 10.5304C84.6849 10.5023 84.6225 10.4618 84.5727 10.4088L84.5696 10.4026ZM84.7628 25.3265C84.7098 25.2735 84.6693 25.2112 84.6412 25.1427C84.6132 25.0741 84.6007 24.9993 84.6038 24.9276V13.4535C84.6038 13.3787 84.6132 13.307 84.6412 13.2353C84.6693 13.1668 84.7098 13.1044 84.7628 13.0515C84.8157 12.9985 84.8781 12.958 84.9467 12.9299C85.0152 12.9019 85.09 12.8894 85.1648 12.8925H86.3271C86.4019 12.8925 86.4736 12.9019 86.5453 12.9299C86.6139 12.958 86.6762 12.9985 86.7292 13.0515C86.779 13.1044 86.8195 13.1668 86.8476 13.2353C86.8756 13.3039 86.8881 13.3787 86.885 13.4503V24.9245C86.885 24.9993 86.8756 25.071 86.8476 25.1395C86.8195 25.2081 86.7821 25.2704 86.7292 25.3234C86.6762 25.3764 86.6139 25.4169 86.5453 25.4449C86.4768 25.473 86.4019 25.4855 86.3271 25.4823H85.1648C85.09 25.4823 85.0183 25.473 84.9498 25.4449C84.8812 25.4169 84.8189 25.3764 84.7659 25.3234L84.7628 25.3265Z" fill="#9A4178"/>
<path d="M91.766 25.2424C91.124 24.9495 90.5693 24.4945 90.1548 23.9242C89.7653 23.382 89.5565 22.7307 89.5627 22.0638C89.5565 21.5527 89.6718 21.0479 89.9024 20.5898C90.133 20.1317 90.4665 19.7391 90.8809 19.4399C91.7597 18.7543 92.947 18.3087 94.4491 18.0968L98.0546 17.5888V16.897C98.0546 15.2547 97.1104 14.4258 95.2251 14.4164C94.6111 14.3884 94.0066 14.5442 93.4799 14.8621C93.0624 15.127 92.7133 15.4853 92.464 15.9123C92.4297 16.0307 92.3674 16.1366 92.2801 16.2208C92.1929 16.2893 92.0807 16.3236 91.9685 16.3174H90.9277C90.7874 16.3174 90.6503 16.2582 90.5506 16.1585C90.4509 16.0587 90.3948 15.9247 90.3917 15.7845C90.4447 15.3015 90.6348 14.8465 90.9339 14.4663C91.3577 13.9147 91.9093 13.4753 92.5451 13.1855C93.3927 12.8084 94.3182 12.6308 95.2469 12.6744C97.0543 12.6744 98.3507 13.0983 99.1422 13.9459C99.9369 14.8029 100.364 15.9372 100.326 17.1027V24.9246C100.326 24.9994 100.317 25.071 100.289 25.1427C100.261 25.2144 100.22 25.2736 100.171 25.3266C100.118 25.3796 100.055 25.4201 99.9868 25.4481C99.9182 25.4762 99.8434 25.4886 99.7717 25.4855H98.6592C98.5844 25.4855 98.5127 25.4762 98.4442 25.4481C98.3756 25.4201 98.3133 25.3796 98.2634 25.3266C98.2105 25.2736 98.1699 25.2113 98.1419 25.1427C98.1138 25.0742 98.1014 24.9994 98.1045 24.9277V23.89C97.7025 24.4447 97.1696 24.8934 96.5526 25.1957C95.7424 25.579 94.8542 25.7629 93.9598 25.7286C93.1994 25.7348 92.4453 25.5696 91.7566 25.2456L91.766 25.2424ZM97.0418 22.8834C97.7087 22.1978 98.0422 21.2131 98.0453 19.9229V19.2467L95.2531 19.6549C94.3431 19.7391 93.4581 20.0133 92.6604 20.4652C92.4017 20.6085 92.1836 20.8173 92.0309 21.0697C91.8782 21.3221 91.794 21.612 91.7878 21.908C91.7815 22.2041 91.8501 22.497 91.9903 22.7556C92.1306 23.0174 92.3362 23.2355 92.5886 23.3914C93.1527 23.7466 93.8102 23.9305 94.4771 23.9118C94.957 23.9305 95.4338 23.8463 95.8795 23.6687C96.3251 23.4911 96.7271 23.2231 97.0637 22.8834H97.045H97.0418Z" fill="#9A4178"/>
<path d="M16.5195 24.2578C17.364 24.2578 18.0527 23.5723 18.0527 22.7246C18.0527 21.877 17.3671 21.1914 16.5195 21.1914C15.6719 21.1914 14.9863 21.877 14.9863 22.7246C14.9863 23.5723 15.6719 24.2578 16.5195 24.2578Z" fill="#EC6696"/>
<path d="M16.5195 12.6524C17.364 12.6524 18.0527 11.9668 18.0527 11.1192C18.0527 10.2715 17.3671 9.58594 16.5195 9.58594C15.6719 9.58594 14.9863 10.2715 14.9863 11.1192C14.9863 11.9668 15.6719 12.6524 16.5195 12.6524Z" fill="#F24B88"/>
<path d="M10.7168 18.4571C11.5613 18.4571 12.25 17.7715 12.25 16.9238C12.25 16.0762 11.5644 15.3906 10.7168 15.3906C9.86917 15.3906 9.18359 16.0762 9.18359 16.9238C9.18359 17.7715 9.86917 18.4571 10.7168 18.4571Z" fill="#E74DAA"/>
<path d="M22.3223 18.4571C23.1668 18.4571 23.8555 17.7715 23.8555 16.9238C23.8555 16.0762 23.1699 15.3906 22.3223 15.3906C21.4746 15.3906 20.7891 16.0762 20.7891 16.9238C20.7891 17.7715 21.4746 18.4571 22.3223 18.4571Z" fill="#ED98B1"/>
<path d="M12.419 14.3555C13.2635 14.3555 13.9522 13.6699 13.9522 12.8223C13.9522 11.9747 13.2666 11.2891 12.419 11.2891C11.5713 11.2891 10.8857 11.9747 10.8857 12.8223C10.8857 13.6699 11.5713 14.3555 12.419 14.3555Z" fill="#9A4178"/>
<path d="M20.6201 22.5547C21.4647 22.5547 22.1534 21.8691 22.1534 21.0215C22.1534 20.1739 21.4678 19.4883 20.6201 19.4883C19.7725 19.4883 19.0869 20.1739 19.0869 21.0215C19.0869 21.8691 19.7725 22.5547 20.6201 22.5547Z" fill="#F26B74"/>
<path d="M12.419 22.5547C13.2635 22.5547 13.9522 21.8691 13.9522 21.0215C13.9522 20.1739 13.2666 19.4883 12.419 19.4883C11.5713 19.4883 10.8857 20.1739 10.8857 21.0215C10.8857 21.8691 11.5713 22.5547 12.419 22.5547Z" fill="#EDAFDB"/>
<path d="M20.6201 14.3555C21.4647 14.3555 22.1534 13.6699 22.1534 12.8223C22.1534 11.9747 21.4678 11.2891 20.6201 11.2891C19.7725 11.2891 19.0869 11.9747 19.0869 12.8223C19.0869 13.6699 19.7725 14.3555 20.6201 14.3555Z" fill="#DA565C"/>
<path d="M19.1748 8.41018C20.0193 8.41018 20.7081 7.7246 20.7081 6.87696C20.7081 6.02933 20.0225 5.34375 19.1748 5.34375C18.3272 5.34375 17.6416 6.02933 17.6416 6.87696C17.6416 7.7246 18.3272 8.41018 19.1748 8.41018Z" fill="#EBB2D5"/>
<path d="M13.8614 28.5039C14.7059 28.5039 15.3945 27.8183 15.3945 26.9707C15.3945 26.1231 14.709 25.4375 13.8614 25.4375C13.0137 25.4375 12.3281 26.1231 12.3281 26.9707C12.3281 27.8183 13.0137 28.5039 13.8614 28.5039Z" fill="#9F65DC"/>
<path d="M13.7959 8.4258C14.6404 8.4258 15.3291 7.74022 15.3291 6.89259C15.3291 6.04496 14.6435 5.35938 13.7959 5.35938C12.9483 5.35938 12.2627 6.04496 12.2627 6.89259C12.2627 7.74022 12.9483 8.4258 13.7959 8.4258Z" fill="#F74378"/>
<path d="M19.2402 28.4883C20.0847 28.4883 20.7734 27.8027 20.7734 26.9551C20.7734 26.1075 20.0879 25.4219 19.2402 25.4219C18.3926 25.4219 17.707 26.1075 17.707 26.9551C17.707 27.8027 18.3926 28.4883 19.2402 28.4883Z" fill="#EFB6D8"/>
<path d="M9.14649 11.1328C9.99101 11.1328 10.6797 10.4473 10.6797 9.59962C10.6797 8.75199 9.99412 8.06641 9.14649 8.06641C8.29886 8.06641 7.61328 8.75199 7.61328 9.59962C7.61328 10.4473 8.29886 11.1328 9.14649 11.1328Z" fill="#FF3660"/>
<path d="M23.8897 25.7774C24.7342 25.7774 25.4229 25.0918 25.4229 24.2442C25.4229 23.3965 24.7373 22.7109 23.8897 22.7109C23.042 22.7109 22.3564 23.3965 22.3564 24.2442C22.3564 25.0918 23.042 25.7774 23.8897 25.7774Z" fill="#9A4178"/>
<path d="M6.47266 15.7969C7.31718 15.7969 8.00589 15.1113 8.00589 14.2637C8.00589 13.4161 7.32029 12.7305 6.47266 12.7305C5.62503 12.7305 4.93945 13.4161 4.93945 14.2637C4.93945 15.1113 5.62503 15.7969 6.47266 15.7969Z" fill="#DA565C"/>
<path d="M26.5664 21.1133C27.4109 21.1133 28.0996 20.4277 28.0996 19.5801C28.0996 18.7325 27.414 18.0469 26.5664 18.0469C25.7188 18.0469 25.0332 18.7325 25.0332 19.5801C25.0332 20.4277 25.7188 21.1133 26.5664 21.1133Z" fill="#FF7951"/>
<path d="M6.48831 21.1797C7.33282 21.1797 8.02152 20.4941 8.02152 19.6465C8.02152 18.7989 7.33594 18.1133 6.48831 18.1133C5.64068 18.1133 4.95508 18.7989 4.95508 19.6465C4.95508 20.4941 5.64068 21.1797 6.48831 21.1797Z" fill="#E541B4"/>
<path d="M26.5508 15.7305C27.3953 15.7305 28.084 15.0449 28.084 14.1973C28.084 13.3496 27.3984 12.6641 26.5508 12.6641C25.7032 12.6641 25.0176 13.3496 25.0176 14.1973C25.0176 15.0449 25.7032 15.7305 26.5508 15.7305Z" fill="#F3BCC1"/>
<path d="M9.19338 25.8281C10.0379 25.8281 10.7266 25.1426 10.7266 24.2949C10.7266 23.4473 10.041 22.7617 9.19338 22.7617C8.34575 22.7617 7.66016 23.4473 7.66016 24.2949C7.66016 25.1426 8.34575 25.8281 9.19338 25.8281Z" fill="#B053DA"/>
<path d="M23.8428 11.086C24.6904 11.086 25.376 10.4004 25.376 9.55275C25.376 8.70511 24.6904 8.01953 23.8428 8.01953C22.9951 8.01953 22.3096 8.70511 22.3096 9.55275C22.3096 10.4004 22.9951 11.086 23.8428 11.086Z" fill="#BF7DBE"/>
<path d="M16.5069 3.47268C17.3514 3.47268 18.0401 2.7871 18.0401 1.93946C18.0401 1.09183 17.3545 0.40625 16.5069 0.40625C15.6592 0.40625 14.9736 1.09183 14.9736 1.93946C14.9736 2.7871 15.6592 3.47268 16.5069 3.47268Z" fill="#E84F98"/>
<path d="M16.5323 33.4375C17.3768 33.4375 18.0655 32.7519 18.0655 31.9043C18.0655 31.0567 17.3799 30.3711 16.5323 30.3711C15.6846 30.3711 14.999 31.0567 14.999 31.9043C14.999 32.7519 15.6846 33.4375 16.5323 33.4375Z" fill="#F57473"/>
<path d="M9.01563 5.48049C9.86015 5.48049 10.5488 4.79491 10.5488 3.94728C10.5488 3.09965 9.86326 2.41406 9.01563 2.41406C8.168 2.41406 7.48242 3.09965 7.48242 3.94728C7.48242 4.79491 8.168 5.48049 9.01563 5.48049Z" fill="#DA565C"/>
<path d="M24.0235 31.4297C24.868 31.4297 25.5567 30.7441 25.5567 29.8965C25.5567 29.0489 24.8711 28.3633 24.0235 28.3633C23.1758 28.3633 22.4902 29.0489 22.4902 29.8965C22.4902 30.7441 23.1758 31.4297 24.0235 31.4297Z" fill="#FFC490"/>
<path d="M3.53712 10.9688C4.38163 10.9688 5.07032 10.2832 5.07032 9.43556C5.07032 8.58793 4.38475 7.90234 3.53712 7.90234C2.68948 7.90234 2.00391 8.58793 2.00391 9.43556C2.00391 10.2832 2.68948 10.9688 3.53712 10.9688Z" fill="#FF6D88"/>
<path d="M29.502 25.9414C30.3465 25.9414 31.0352 25.2558 31.0352 24.4082C31.0352 23.5606 30.3496 22.875 29.502 22.875C28.6543 22.875 27.9688 23.5606 27.9688 24.4082C27.9688 25.2558 28.6543 25.9414 29.502 25.9414Z" fill="#F98B5B"/>
<path d="M1.53321 18.4688C2.37772 18.4688 3.06642 17.7832 3.06642 16.9356C3.06642 16.0879 2.38084 15.4023 1.53321 15.4023C0.685578 15.4023 0 16.0879 0 16.9356C0 17.7832 0.685578 18.4688 1.53321 18.4688Z" fill="#984CE2"/>
<path d="M31.503 18.4414C32.3475 18.4414 33.0361 17.7558 33.0361 16.9082C33.0361 16.0606 32.3506 15.375 31.503 15.375C30.6553 15.375 29.9697 16.0606 29.9697 16.9082C29.9697 17.7558 30.6553 18.4414 31.503 18.4414Z" fill="#DA565C"/>
<path d="M3.54592 25.961C4.39044 25.961 5.07913 25.2754 5.07913 24.4277C5.07913 23.5801 4.39355 22.8945 3.54592 22.8945C2.69829 22.8945 2.0127 23.5801 2.0127 24.4277C2.0127 25.2754 2.69829 25.961 3.54592 25.961Z" fill="#DA565C"/>
<path d="M29.4922 10.9531C30.3367 10.9531 31.0254 10.2676 31.0254 9.41993C31.0254 8.5723 30.3398 7.88672 29.4922 7.88672C28.6445 7.88672 27.959 8.5723 27.959 9.41993C27.959 10.2676 28.6445 10.9531 29.4922 10.9531Z" fill="#8973D0"/>
<path d="M9.03419 31.4375C9.8787 31.4375 10.5674 30.7519 10.5674 29.9043C10.5674 29.0567 9.88182 28.3711 9.03419 28.3711C8.18656 28.3711 7.50098 29.0567 7.50098 29.9043C7.50098 30.7519 8.18656 31.4375 9.03419 31.4375Z" fill="#C09DE4"/>
<path d="M24.0049 5.47268C24.8494 5.47268 25.5381 4.7871 25.5381 3.93946C25.5381 3.09183 24.8525 2.40625 24.0049 2.40625C23.1573 2.40625 22.4717 3.09183 22.4717 3.93946C22.4717 4.7871 23.1573 5.47268 24.0049 5.47268Z" fill="#9A4178"/>
</svg>
